<svg width="80" height="80" viewBox="0 0 80 80" fill="none" xmlns="http://www.w3.org/2000/svg">
<path d="M8.33341 56.6666L6.86011 48.4205C4.74942 28.7882 20.1875 11.6666 40.0001 11.6666C59.8127 11.6666 75.2507 28.7882 73.14 48.4205L71.6667 56.6666" stroke="black" stroke-width="4" stroke-linecap="round" stroke-linejoin="round"/>
<path d="M26.7191 35C26.0431 24.3168 31.9939 11.6666 40.0001 11.6666" stroke="black" stroke-width="4" stroke-linecap="round" stroke-linejoin="round"/>
<path d="M53.3334 35C54.0094 24.3168 48.0586 11.6666 40.0524 11.6666" stroke="black" stroke-width="4" stroke-linecap="round" stroke-linejoin="round"/>
<path d="M40 9.99996V6.66663" stroke="black" stroke-width="4" stroke-linecap="round" stroke-linejoin="round"/>
<path d="M8.33325 56.6978C34.9999 47.1426 44.9999 48.4145 71.6666 56.6979C70.7452 60.436 70.2438 70.9985 66.1698 72.9888C64.2165 73.9431 61.4154 72.6628 59.4031 72.1822C49.7505 69.8764 44.9242 68.7235 39.9999 68.7235C35.0756 68.7235 30.2493 69.8764 20.5967 72.1822C18.5844 72.6628 15.7833 73.9431 13.8301 72.9888C9.75607 70.9985 9.25465 60.436 8.33325 56.6978Z" stroke="black" stroke-width="4" stroke-linecap="round" stroke-linejoin="round"/>
</svg>
