<svg width="80" height="80" viewBox="0 0 80 80" fill="none" xmlns="http://www.w3.org/2000/svg">
<path d="M66.6444 35C69.467 43.2593 77.06 58.1934 71.1398 66.2681C63.5121 76.6721 15.0184 74.6507 8.87265 66.2681C2.95254 58.1934 10.5109 43.2593 13.3334 35" stroke="black" stroke-width="4" stroke-linecap="round" stroke-linejoin="round"/>
<path d="M39.9999 50C44.2118 50 49.9947 58.571 44.2651 59.643C41.7007 60.1228 38.2587 60.1152 35.7348 59.643C30.0052 58.571 35.7881 50 39.9999 50Z" stroke="black" stroke-width="4" stroke-linecap="round"/>
<path d="M24.9999 50C19.0734 46.0155 15.371 40.3069 13.9086 33.5659C13.2882 30.706 12.978 29.276 13.984 27.9713C14.9901 26.6666 16.625 26.6666 19.8948 26.6666H60.105C63.3748 26.6666 65.0097 26.6666 66.0158 27.9713C67.0219 29.276 66.7117 30.706 66.0912 33.5659C64.6288 40.3069 60.9264 46.0155 54.9999 50" stroke="black" stroke-width="4" stroke-linecap="round"/>
<path d="M40 50L40 26.6666" stroke="black" stroke-width="4" stroke-linecap="round"/>
<path d="M21.6667 26.6667C23.5664 13.3068 31.0534 3.33337 40.0001 3.33337C48.9468 3.33337 56.4337 13.3068 58.3334 26.6667" stroke="black" stroke-width="4"/>
</svg>
