<svg width="80" height="80" viewBox="0 0 80 80" fill="none" xmlns="http://www.w3.org/2000/svg">
<path d="M20 30V55.6136C20 61.6508 20 64.6694 21.9526 66.5449C26.333 70.7522 52.8525 71.5346 58.0474 66.5449C60 64.6694 60 61.6508 60 55.6136V30" stroke="black" stroke-width="4" stroke-linecap="round"/>
<path d="M19.1359 40L10.1441 31.2972C7.82587 29.0534 6.66675 27.9315 6.66675 26.5374C6.66675 25.1433 7.82587 24.0215 10.1441 21.7777L16.814 15.3221C17.9697 14.2036 18.5475 13.6443 19.2364 13.2323C19.9252 12.8202 20.7004 12.5701 22.2509 12.0699L27.7372 10.2999C28.5393 10.0411 28.9404 9.91171 29.2131 10.0673C29.4858 10.2229 29.572 10.671 29.7442 11.5673C30.6454 16.2561 34.8944 19.8062 40.0001 19.8062C45.1058 19.8062 49.3548 16.2561 50.2559 11.5673C50.4282 10.671 50.5143 10.2229 50.787 10.0673C51.0598 9.91171 51.4608 10.0411 52.263 10.2999L57.7492 12.0699C59.2997 12.5701 60.075 12.8202 60.7638 13.2323C61.4526 13.6443 62.0305 14.2036 63.1861 15.3221L69.856 21.7777C72.1743 24.0215 73.3334 25.1433 73.3334 26.5374C73.3334 27.9315 72.1743 29.0534 69.856 31.2972L60.8643 40" stroke="black" stroke-width="4" stroke-linecap="round" stroke-linejoin="round"/>
</svg>
